<?xml version="1.0" encoding="UTF-8" standalone="no"?>
<!-- Created with Inkscape (http://www.inkscape.org/) -->

<svg
   width="60.959999mm"
   height="128.5mm"
   viewBox="0 0 60.959999 128.5"
   version="1.1"
   id="svg1"
   xml:space="preserve"
   inkscape:version="1.4 (e7c3feb100, 2024-10-09)"
   sodipodi:docname="12hp-panel.svg"
   xmlns:inkscape="http://www.inkscape.org/namespaces/inkscape"
   xmlns:sodipodi="http://sodipodi.sourceforge.net/DTD/sodipodi-0.dtd"
   xmlns="http://www.w3.org/2000/svg"
   xmlns:svg="http://www.w3.org/2000/svg"><sodipodi:namedview
     id="namedview1"
     pagecolor="#ffffff"
     bordercolor="#000000"
     borderopacity="0.25"
     inkscape:showpageshadow="2"
     inkscape:pageopacity="0.0"
     inkscape:pagecheckerboard="0"
     inkscape:deskcolor="#d1d1d1"
     inkscape:document-units="mm"
     inkscape:zoom="2"
     inkscape:cx="43.75"
     inkscape:cy="230"
     inkscape:window-width="2560"
     inkscape:window-height="1388"
     inkscape:window-x="0"
     inkscape:window-y="0"
     inkscape:window-maximized="0"
     inkscape:current-layer="layer1" /><defs
     id="defs1" /><g
     inkscape:label="Layer 1"
     inkscape:groupmode="layer"
     id="layer1"><rect
       style="fill:#8800aa;stroke-width:0.265184;stroke:none"
       id="rect1"
       width="60.959999"
       height="128.5"
       x="0"
       y="0" /><g
       id="g25"
       inkscape:export-filename="export/g25.png"
       inkscape:export-xdpi="346.1861"
       inkscape:export-ydpi="346.1861"
       transform="matrix(0.09386933,0,0,0.09386933,-133.36175,-12.211179)"
       style="fill:#aa87de;stroke:#000000"><path
         id="path187"
         style="fill:#aa87de;fill-opacity:1;stroke:#000000;stroke-linejoin:round"
         d="m 1772.9454,204.53293 -102.5332,161.4707 14.75,21.625 87.7832,-138.2344 37.0078,58.2774 -37.041,58.332 14.75,21.625 36.5332,-57.5293 36.5313,57.5293 14.75,-21.625 z"
         sodipodi:nodetypes="ccccccccccc" /><path
         id="path188"
         style="fill:#aa87de;fill-opacity:1;stroke:#000000;stroke-linejoin:round"
         d="m 1473.6665,156.25153 -14.2441,22.4297 44.2676,69.7148 24.0527,-37.875 60.9883,96.043 46.8457,-73.7676 55.5078,87.4121 14.2422,-22.4277 -69.75,-109.8457 -46.8457,73.7734 -60.9883,-96.0488 -24.0508,37.8789 z"
         sodipodi:nodetypes="ccccccccccccc" /><path
         style="fill:#aa87de;fill-opacity:1;stroke:#000000;stroke-width:1.11381;stroke-linejoin:round"
         d="m 1880.9515,204.58983 -0.074,13.4453 28.1546,0.033 -0.088,66.1411 h 13.5175 l 0.035,-66.1255 28.1036,0.033 v -13.5149 z"
         id="path189"
         sodipodi:nodetypes="ccccccccc" /><path
         id="path190"
         style="fill:#aa87de;fill-opacity:1;stroke:#000000;stroke-width:1.11381;stroke-linejoin:round"
         d="m 1962.0345,204.59563 -0.057,79.7895 h 13.5175 l 7e-4,-25.8429 23.9863,-13.8672 -0.028,39.7101 h 13.5226 v -79.7895 h -13.4649 l -0.018,24.5072 -23.998,13.8496 v -38.3568 z"
         sodipodi:nodetypes="ccccccccccccc" /><path
         id="path191"
         style="fill:#aa87de;fill-opacity:1;stroke:#000000;stroke-width:1.11381;stroke-linejoin:round"
         d="m 1961.9774,296.87343 v 13.5156 l 17.705,26.3809 -17.7012,26.3691 v 13.5176 l 50.9992,-0.01 v -13.4649 l -34.7727,-0.029 17.7403,-26.3828 -17.7442,-26.3848 34.7766,-0.01 v -13.4649 z"
         sodipodi:nodetypes="ccccccccccccc" /><path
         id="path192"
         style="fill:#aa87de;fill-opacity:1;stroke:#000000;stroke-width:1.11381;stroke-linejoin:round"
         d="m 1921.6565,296.87343 c -13.5935,13.5737 -27.1873,27.1473 -40.7792,40.7227 l 30.9453,30.9453 -12.5266,12.5311 9.5215,9.5214 c 15.6279,-15.6051 28.1289,-28.0863 43.7551,-43.6932 l -18.5801,-18.58 -9.5215,9.5214 9.0195,9.0313 -12.1347,12.1348 -21.3809,-21.4102 31.2031,-31.2031 z"
         sodipodi:nodetypes="ccccccccccccc" /></g><rect
       style="fill:#aa87de;stroke:none;stroke-width:0.251191"
       id="rect2"
       width="55.959999"
       height="26.204"
       x="2.5"
       y="99.795753"
       ry="1.2525489" /><rect
       style="fill:#5f8dd3;stroke:none;stroke-width:0.125198"
       id="rect4"
       width="53.652012"
       height="6.7894912"
       x="3.6539936"
       y="118.00991"
       ry="1.3393877" /><g
       id="g21"
       transform="translate(0.84361029)"><g
         id="g4"><circle
           style="fill:#5d536c;stroke:none;stroke-width:0.264583"
           id="path4"
           cx="7.4631042"
           cy="121.40466"
           r="1.931013" /><circle
           style="fill:#1c1f24;stroke:none;stroke-width:0.176984"
           id="circle4"
           cx="7.4631042"
           cy="121.40466"
           r="1.2916911" /></g><g
         id="g6"
         transform="translate(5.5433212)"><circle
           style="fill:#5d536c;stroke:none;stroke-width:0.264583"
           id="circle5"
           cx="7.4631042"
           cy="121.40466"
           r="1.931013" /><circle
           style="fill:#1c1f24;stroke:none;stroke-width:0.176984"
           id="circle6"
           cx="7.4631042"
           cy="121.40466"
           r="1.2916911" /></g><g
         id="g8"
         transform="translate(11.086642)"><circle
           style="fill:#5d536c;stroke:none;stroke-width:0.264583"
           id="circle7"
           cx="7.4631042"
           cy="121.40466"
           r="1.931013" /><circle
           style="fill:#1c1f24;stroke:none;stroke-width:0.176984"
           id="circle8"
           cx="7.4631042"
           cy="121.40466"
           r="1.2916911" /></g><g
         id="g10"
         transform="translate(16.629964)"><circle
           style="fill:#5d536c;stroke:none;stroke-width:0.264583"
           id="circle9"
           cx="7.4631042"
           cy="121.40466"
           r="1.931013" /><circle
           style="fill:#1c1f24;stroke:none;stroke-width:0.176984"
           id="circle10"
           cx="7.4631042"
           cy="121.40466"
           r="1.2916911" /></g><g
         id="g12"
         transform="translate(22.173285)"><circle
           style="fill:#5d536c;stroke:none;stroke-width:0.264583"
           id="circle11"
           cx="7.4631042"
           cy="121.40466"
           r="1.931013" /><circle
           style="fill:#1c1f24;stroke:none;stroke-width:0.176984"
           id="circle12"
           cx="7.4631042"
           cy="121.40466"
           r="1.2916911" /></g><g
         id="g14"
         transform="translate(27.716606)"><circle
           style="fill:#5d536c;stroke:none;stroke-width:0.264583"
           id="circle13"
           cx="7.4631042"
           cy="121.40466"
           r="1.931013" /><circle
           style="fill:#1c1f24;stroke:none;stroke-width:0.176984"
           id="circle14"
           cx="7.4631042"
           cy="121.40466"
           r="1.2916911" /></g><g
         id="g16"
         transform="translate(33.259927)"><circle
           style="fill:#5d536c;stroke:none;stroke-width:0.264583"
           id="circle15"
           cx="7.4631042"
           cy="121.40466"
           r="1.931013" /><circle
           style="fill:#1c1f24;stroke:none;stroke-width:0.176984"
           id="circle16"
           cx="7.4631042"
           cy="121.40466"
           r="1.2916911" /></g><g
         id="g18"
         transform="translate(38.803249)"><circle
           style="fill:#5d536c;stroke:none;stroke-width:0.264583"
           id="circle17"
           cx="7.4631042"
           cy="121.40466"
           r="1.931013" /><circle
           style="fill:#1c1f24;stroke:none;stroke-width:0.176984"
           id="circle18"
           cx="7.4631042"
           cy="121.40466"
           r="1.2916911" /></g><g
         id="g20"
         transform="translate(44.34657)"><circle
           style="fill:#5d536c;stroke:none;stroke-width:0.264583"
           id="circle19"
           cx="7.4631042"
           cy="121.40466"
           r="1.931013" /><circle
           style="fill:#1c1f24;stroke:none;stroke-width:0.176984"
           id="circle20"
           cx="7.4631042"
           cy="121.40466"
           r="1.2916911" /></g></g></g></svg>
